<svg height="43" title="wao.io logo in white" viewBox="0 0 159 43" width="159" xmlns="http://www.w3.org/2000/svg">
  <title>wao.io logo in white</title>
  <defs>
    <path id="WaoLogoWhite__a" d="M0 42.0851064L158.23441 42.0851064 158.23441 0.554425532 0 0.554425532z"></path>
  </defs>
  <g fill="none" fill-rule="evenodd">
    <path
      fill="#FFFFFF"
      d="M90.8008561 28.6134809L93.4183821 19.7865872 95.8401451 19.7865872 98.4576711 28.5878638 100.827966 19.7865872 103.809446 19.7865872 99.8905092 32.7359915 97.3373185 32.7359915 94.6425902 23.6099277 91.9074225 32.7753319 89.3560699 32.7753319 85.4748156 19.7865872 88.4443474 19.7865872z"
      transform="translate(0 -1)"
    ></path>
    <g transform="translate(0 -.64)">
      <path
        d="M113.419663 26.7758255L110.346276 26.7758255C108.549484 26.7758255 107.677282 27.5013362 107.677282 28.6028681 107.677282 29.6659745 108.498016 30.2881021 109.761744 30.2881021 111.844368 30.2881021 113.381062 28.5507191 113.419663 26.7758255M104.812524 28.5122936C104.812524 25.7648681 107.000842 24.7529957 110.164299 24.7529957L113.419663 24.7529957C113.419663 22.8609957 112.547461 21.5774 110.65968 21.5774 109.057732 21.5774 108.002634 22.5105915 107.429131 23.443783L105.307906 21.9012723C106.544981 20.2297617 108.171744 19.1529319 110.607293 19.1529319 114.084154 19.1529319 116.063842 21.3312936 116.063842 24.4940809L116.063842 32.3749745 113.758802 32.3749745 113.589692 30.3137191C112.520808 32.0382936 111.024553 32.6338894 109.383085 32.6338894 106.778426 32.6338894 104.812524 31.1307191 104.812524 28.5122936M128.564643 25.8680681C128.564643 23.6000468 127.496677 21.5387915 124.945325 21.5387915 122.392134 21.5387915 121.324169 23.6000468 121.324169 25.8680681 121.324169 28.1488979 122.392134 30.2623021 124.945325 30.2623021 127.496677 30.2623021 128.564643 28.1360894 128.564643 25.8680681M118.433677 25.8680681C118.433677 22.1993447 121.02455 19.1527489 124.931539 19.1527489 128.851394 19.1527489 131.456053 22.1993447 131.456053 25.8680681 131.456053 29.5367915 128.851394 32.6346213 124.931539 32.6346213 121.02455 32.6346213 118.433677 29.5367915 118.433677 25.8680681"
        fill="#FFFFFF"
      ></path>
      <mask id="WaoLogoWhite__b" fill="#fff">
        <use xmlns:xlink="http://www.w3.org/1999/xlink" xlink:href="#WaoLogoWhite__a"></use>
      </mask>
      <path
        fill="#FFFFFF"
        mask="url(#WaoLogoWhite__b)"
        d="M133.491069 32.3753404L136.498283 32.3753404 136.498283 29.2381702 133.491069 29.2381702zM139.637844 32.3753404L142.412532 32.3753404 142.412532 19.4259362 139.637844 19.4259362 139.637844 32.3753404zM139.534908 16.8459362L142.50352 16.8459362 142.50352 14.0591702 139.534908 14.0591702 139.534908 16.8459362zM155.34346 25.8680681C155.34346 23.6000468 154.275494 21.5387915 151.723223 21.5387915 149.170951 21.5387915 148.102986 23.6000468 148.102986 25.8680681 148.102986 28.1488979 149.170951 30.2623021 151.723223 30.2623021 154.275494 30.2623021 155.34346 28.1360894 155.34346 25.8680681M145.212494 25.8680681C145.212494 22.1993447 147.803367 19.1527489 151.710355 19.1527489 155.630211 19.1527489 158.23487 22.1993447 158.23487 25.8680681 158.23487 29.5367915 155.630211 32.6346213 151.710355 32.6346213 147.803367 32.6346213 145.212494 29.5367915 145.212494 25.8680681M.459537572 32.3134021L17.4624277 42.0853809 17.4624277 22.5414234 8.96098266 27.4269553.459537572 32.3134021zM17.0028902 21.7491255L0 11.9771468 0 31.5211043 8.50144509 26.6355723 17.0028902 21.7491255zM54.6849711 7.33223191L54.6849711 14.9038915 61.2719827 11.1180617 54.6849711 7.33223191zM54.6849711.553785106L54.6849711 4.77967872 58.3612717 2.66718936 54.6849711.553785106zM18.3815029 22.5414234L18.3815029 42.0853809 35.3843931 32.3134021 26.882948 27.4269553 18.3815029 22.5414234zM55.6040462 21.7491255L64.1054913 26.6355723 72.6069364 31.5211043 72.6069364 11.9771468 55.6040462 21.7491255zM55.1445087 22.5414234L55.1445087 42.0853809 72.1473988 32.3134021 63.6459538 27.4269553 55.1445087 22.5414234zM63.5696705 6.18861489L63.5696705 16.0484234 72.1473988 11.1180617 63.5696705 6.18861489zM27.3424855 26.6355723L35.8439306 31.5211043 35.8439306 11.9771468 18.8410405 21.7491255 27.3424855 26.6355723zM53.765896 21.7491255L36.7630058 11.9771468 36.7630058 31.5211043 45.2644509 26.6355723 53.765896 21.7491255zM37.2225434 32.3134021L54.2254335 42.0853809 54.2254335 22.5414234 45.7239884 27.4269553 37.2225434 32.3134021z"
      >
      </path>
    </g>
  </g>
  <text transform="matrix(0 0 0 0 0 0)" fill="none" font-size="12">wao.io Logo</text>
</svg>
